<svg xmlns="http://www.w3.org/2000/svg" width="800" height="480" viewBox="0 0 800 480" fill="none">
  <defs>
    <linearGradient id="bg2" x1="0" y1="0" x2="800" y2="480" gradientUnits="userSpaceOnUse">
      <stop stop-color="#fff7ed"/>
      <stop offset="0.5" stop-color="#fff1f2"/>
      <stop offset="1" stop-color="#fce7f3"/>
    </linearGradient>
    <radialGradient id="glow2" cx="400" cy="210" r="180" gradientUnits="userSpaceOnUse">
      <stop stop-color="#fda4af" stop-opacity="0.45"/>
      <stop offset="1" stop-color="#fda4af" stop-opacity="0"/>
    </radialGradient>
  </defs>
  <rect width="800" height="480" fill="url(#bg2)"/>
  <rect width="800" height="480" fill="url(#glow2)"/>

  <rect x="290" y="130" width="220" height="150" rx="10" fill="#1e1b4b" fill-opacity="0.88"/>
  <rect x="305" y="145" width="190" height="115" rx="6" fill="#312e81" fill-opacity="0.65"/>
  <ellipse cx="400" cy="200" rx="40" ry="28" fill="#fbcfe8" fill-opacity="0.22"/>
  <path d="M260 280 L540 280 L560 310 L240 310 Z" fill="#334155" fill-opacity="0.75"/>
  <rect x="240" y="305" width="320" height="12" rx="6" fill="#475569" fill-opacity="0.6"/>

  <rect x="180" y="350" width="440" height="56" rx="28" fill="#fff" fill-opacity="0.55"/>
  <path d="M310 330 C310 300 330 285 350 295 C370 285 390 300 390 330 C390 360 350 375 350 375 C350 375 310 360 310 330Z" fill="#fbcfe8" fill-opacity="0.85" stroke="#f472b6" stroke-width="1.5" stroke-opacity="0.35"/>
  <ellipse cx="350" cy="318" rx="18" ry="10" fill="#fff" fill-opacity="0.5"/>
  <rect x="338" y="372" width="24" height="28" rx="4" fill="#fda4af" fill-opacity="0.5"/>
  <path d="M500 332 C520 312 540 332 560 322 C580 312 590 342 570 352 C550 362 520 352 500 332Z" fill="#f472b6" fill-opacity="0.35"/>
</svg>
